<svg width="28" height="28" viewBox="0 0 28 28" fill="none" xmlns="http://www.w3.org/2000/svg">
<path fill-rule="evenodd" clip-rule="evenodd" d="M10.6208 5C11.9598 3.14453 14.1628 2 16.5715 2C20.3534 2 23.459 4.7959 23.7919 8.36377C25.955 9.16455 27.4465 11.186 27.4465 13.5C27.4465 16.5376 24.8961 19 21.75 19H18.6429V17H21.75C23.7521 17 25.375 15.4331 25.375 13.5C25.375 11.8569 24.1925 10.4448 22.5557 10.0864C22.077 9.98193 21.7402 9.56689 21.7491 9.09326L21.75 9C21.75 6.23877 19.4315 4 16.5715 4C14.7007 4 13.0051 4.96484 12.085 6.50049C11.8999 6.80957 11.5582 7 11.1885 7H8.80359C7.38251 7 6.22723 8.10596 6.21442 9.47656C6.21088 9.85303 5.98877 10.1958 5.63965 10.3633C4.41528 10.9507 3.625 12.1567 3.625 13.5C3.625 15.4331 5.24799 17 7.25 17H10.3572V19H7.25C4.10394 19 1.55359 16.5376 1.55359 13.5C1.55359 11.5903 2.57123 9.85596 4.18964 8.86035C4.51141 6.67676 6.45593 5 8.80359 5H10.6208ZM11.6074 20.793L13.4643 22.5859V12C13.4643 11.4478 13.928 11 14.5 11C15.072 11 15.5357 11.4478 15.5357 12V22.5859L17.3926 20.793C17.7971 20.4023 18.4529 20.4023 18.8574 20.793C19.2618 21.1836 19.2618 21.8164 18.8574 22.207L15.2324 25.707C14.8279 26.0977 14.1721 26.0977 13.7676 25.707L10.1426 22.207C9.73816 21.8164 9.73816 21.1836 10.1426 20.793C10.5471 20.4023 11.2029 20.4023 11.6074 20.793Z" fill="black"/>
</svg>
